<?xml version="1.0" encoding="utf-8"?>
<!-- Generator: Adobe Illustrator 24.3.0, SVG Export Plug-In . SVG Version: 6.00 Build 0)  -->
<svg version="1.0" id="Layer_1" xmlns="http://www.w3.org/2000/svg" xmlns:xlink="http://www.w3.org/1999/xlink" x="0px" y="0px"
	 viewBox="0 0 153.32 155.66" style="enable-background:new 0 0 153.32 155.66;" xml:space="preserve">
<style type="text/css">
	.st0{fill-rule:evenodd;clip-rule:evenodd;fill:#0D6A93;}
	.st1{fill-rule:evenodd;clip-rule:evenodd;fill:#308215;}
</style>
<path class="st0" d="M65.59,37.85c0.72,2.53,2.26,6.77,2.62,10.91h0c0.76,8.53-10.38,6.09-15.17,3.05
	c-2.42-1.54-3.71-4.08-4.22-6.89c-0.75-4.16,0.13-6.33,2.52-9.53c-1.64,4.37-2.11,12.08,2.57,15.05c2.98,1.89,13.29,5.45,12.67-1.53
	h0c-0.51-5.74-2.82-9.7-3.36-14.58c-0.16-1.46-0.21-3.11-0.1-5.15C64.09,32.28,64.73,34.83,65.59,37.85L65.59,37.85z M106.97,90.49
	c2.44-0.31,4.87-0.76,7.29-1.36c7.93-1.96,15.45-5.43,22.06-10.18c-4.07-4.52-6.71-10.82-7.85-16.47
	c-1.21-6.02-3.89-13.41-10.18-13.76c-2.43-2.87-6.51-4.97-12.17-5.89c1.71,2.06,2.67,5.11,3.23,7.81c-5.16,1.9-7.04,3.54-9.09,7.61
	c-0.39,0.76-0.78,1.61-1.2,2.57c-0.93,2.81-0.77,2.22-3.05,3.71c-0.72,0.47-0.95,0.51-0.87,1.57c0.46,5.87,2.67,6.83,7.66,6.79
	c5.09-0.05,7.81,3.37,7.88,6.91C110.76,83.54,108.29,86.44,106.97,90.49z M7.93,68.15c4.27,1.34,8.08,4.56,11.07,7.77
	c6.66,7.16,13.97,13.89,22.22,19.19c1.11,0.71,2.24,1.4,3.39,2.06c-1.53-2.86-2.07-6.04-0.58-9.31c1.96-4.33,6.55-6.09,11.01-6.32
	c4.06-0.21,8.33,0.74,12.25,2.15c-3.22-7.59-2.89-16.27,2.99-22.82c3.52-3.92,9.2-4.29,19.3-4.22c3.12,0.02,4.71-0.15,6.72-3.26
	c1.55-2.4,3.12-4.56,3.63-7.42c0.6-3.34,0.51-5.74-3.56-6.88c-2.88-0.81-2.92-0.52-4.75-0.89c-3.28-0.39-7.86-0.58-8.72-4.43
	c-0.66-6.07-5.79-8.76-11.65-9.93c-23.93-4.77-22.11,5.93-30.87,17.72l-9.07,11.76c-2.96,3.05-5.97,5.59-9.62,7.78
	c-1.61,0.97-9.57,2.95-13.27,4.04C8.24,66.14,8.07,67.14,7.93,68.15z M76.68,3C36.92,3,4.42,34,2,73.15
	c3.47-0.94,7.77,0.78,13.05,6.45c10.67,11.47,32.1,31.85,57.71,30.46c-5.9-2.99-11.33-4.95-16.77-8.72
	C41.25,91.12,50.3,82.11,68.06,89.82c33.51,14.55,65.41,3.38,83.26-17.25C148.62,33.69,116.24,3,76.68,3z"/>
<path class="st1" d="M3.52,93.64c14.97,21.09,44.36,34.34,77.13,22.92c17.08-5.95,24.89,3.07,10.44,11.57
	c-5.32,3.13-10.52,4.58-16.22,6.96c23.76,3.07,45.14-14.43,55.87-24.37c6.69-6.19,11.49-6.66,14.89-3.76
	c-11.36,26.86-37.96,45.71-68.95,45.71C40.78,152.66,10.78,127.38,3.52,93.64L3.52,93.64z"/>
</svg>
